#N canvas 605 162 440 435 10;
#X text 20 12 mapper;
#X text 22 27 A pd wrapper for libmapper/Digital Orchestra Tools;
#X text 20 353 For more information visit;
#X text 21 368 www.idmil.org/software/libmapper;
#X obj 30 79 r mapper;
#N canvas 422 693 450 300 adding_signals 0;
#X text 19 15 Input and ouput signals can be added to the device by
sending the message "add input" or "add output" along with a signal
name and data type. Signal metadata is specified using tagged arguments
\; only the type tag is required but any others can be added. If min
and max tags are supplied the system will be able to automatically
use linear scaling when creating mapping connections.;
#X msg 29 131 add input /gain @type f @units normalized @min 0 @max
1;
#X msg 51 161 add input /rate @type f @units Hz @min 0 @max 100;
#X msg 80 192 add output /pressure @type f;
#X obj 29 236 s mapper;
#X msg 119 219 remove output /pressure;
#X connect 1 0 4 0;
#X connect 2 0 4 0;
#X connect 3 0 4 0;
#X connect 5 0 4 0;
#X restore 30 240 pd adding_signals;
#N canvas 96 258 451 421 learn_mode 0;
#X obj 111 28 tgl 15 0 empty empty empty 17 7 0 10 -262144 -1 -1 0
1;
#X obj 111 62 metro 250;
#X obj 25 103 random 100;
#X obj 111 103 random 100;
#X obj 197 103 random 100;
#X obj 25 133 prepend /out1;
#X obj 111 133 prepend /out2;
#X obj 197 133 prepend /out3;
#X obj 25 235 mapper;
#X obj 58 294 route numOutputs;
#X floatatom 58 323 5 0 0 0 - - -;
#X msg 181 170 learn 1;
#X msg 181 195 learn 0;
#X text 135 28 1) start sending some signals;
#X text 235 168 2) turn on learn mode;
#X text 101 321 3) watch the number of reported signals;
#X connect 0 0 1 0;
#X connect 1 0 2 0;
#X connect 1 0 3 0;
#X connect 1 0 4 0;
#X connect 2 0 5 0;
#X connect 3 0 6 0;
#X connect 4 0 7 0;
#X connect 5 0 8 0;
#X connect 6 0 8 0;
#X connect 7 0 8 0;
#X connect 8 1 9 0;
#X connect 9 0 10 0;
#X connect 11 0 8 0;
#X connect 12 0 8 0;
#X restore 140 240 pd learn_mode;
#N canvas 575 569 760 406 simple_example 0;
#X obj 82 28 hsl 128 15 0 127 0 0 empty empty empty -2 -8 0 10 -262144
-1 -1 0 1;
#X obj 82 169 hsl 128 15 0 127 0 0 empty empty empty -2 -8 0 10 -262144
-1 -1 0 1;
#X obj 79 53 prepend /out1;
#X obj 334 158 buddy;
#X obj 334 201 pack symbol symbol;
#X obj 439 175 tosymbol;
#X text 332 316 The administrative traffic for the mapping network
uses multicast UDP.;
#X text -85 206 Sends the /link and /connect messages which create
a mapping connection between the two instances of the mapper object
;
#X text 79 233 ---------------------------------->;
#X obj 79 142 route /in1;
#X obj 334 96 route name;
#X obj 361 133 route name;
#N canvas 1 54 450 300 add_signal 0;
#X obj 70 60 loadbang;
#X obj 70 113 outlet;
#X msg 70 87 add output /out1 @type f @length 1 @min 0 @max 127;
#X connect 0 0 2 0;
#X connect 2 0 1 0;
#X restore -24 54 pd add_signal;
#N canvas 0 22 450 300 add_signal 0;
#X obj 70 60 loadbang;
#X obj 70 113 outlet;
#X msg 70 87 add input /in1 @type f @length 1 @min 0 @max 127;
#X connect 0 0 2 0;
#X connect 2 0 1 0;
#X restore -26 89 pd add_signal;
#X obj 79 79 mapper;
#X obj 79 116 mapper;
#X obj 587 274 print to_admin;
#X obj 334 275 sendOSC;
#X msg 86 304 connect 224.0.1.3 7570;
#X obj 86 280 loadbang;
#X msg 334 228 send /link \$1 \$2 \, send /connect \$1/out1 \$2/in1
@mode expression @expression y=127-x;
#X connect 0 0 2 0;
#X connect 2 0 14 0;
#X connect 3 0 4 0;
#X connect 3 1 5 0;
#X connect 4 0 20 0;
#X connect 5 0 4 1;
#X connect 9 0 1 0;
#X connect 10 0 3 0;
#X connect 11 0 3 1;
#X connect 12 0 14 0;
#X connect 13 0 15 0;
#X connect 14 1 10 0;
#X connect 15 0 9 0;
#X connect 15 1 11 0;
#X connect 18 0 17 0;
#X connect 19 0 18 0;
#X connect 20 0 16 0;
#X connect 20 0 17 0;
#X restore 226 240 pd simple_example;
#X text 20 263 The mapper object forms part of a distributed network
of devices communicating over the local network. The inputs and outputs
of each device can be discovered and queried by other participants
in the network \, and mapping connections can be created \, edited
\, and destroyed using messages or graphical interfaces.;
#N canvas 990 600 450 300 info 0;
#X obj 34 35 inlet;
#X obj 34 70 route name IP port numInputs numOutputs;
#X obj 34 141 symbol;
#X obj 34 166 outlet;
#X obj 80 141 symbol;
#X obj 80 166 outlet;
#X obj 126 166 outlet;
#X obj 172 166 outlet;
#X obj 218 166 outlet;
#X obj 265 103 print extra_props;
#X connect 0 0 1 0;
#X connect 1 0 2 0;
#X connect 1 1 4 0;
#X connect 1 2 6 0;
#X connect 1 3 7 0;
#X connect 1 4 8 0;
#X connect 1 5 9 0;
#X connect 2 0 3 0;
#X connect 4 0 5 0;
#X restore 165 132 pd info;
#X symbolatom 31 172 0 0 0 3 name - -;
#X floatatom 228 172 5 0 0 3 port - -;
#X floatatom 281 173 5 0 0 3 numInputs - -;
#X floatatom 346 173 5 0 0 3 numOutputs - -;
#X symbolatom 130 172 0 0 0 3 IP - -;
#X obj 30 108 mapper @alias my_device;
#X connect 4 0 15 0;
#X connect 9 0 10 0;
#X connect 9 1 14 0;
#X connect 9 2 11 0;
#X connect 9 3 12 0;
#X connect 9 4 13 0;
#X connect 15 1 9 0;
