{
	"patcher" : 	{
		"fileversion" : 1,
		"appversion" : 		{
			"major" : 5,
			"minor" : 1,
			"revision" : 9
		}
,
		"rect" : [ 121.0, 44.0, 980.0, 660.0 ],
		"bglocked" : 0,
		"defrect" : [ 121.0, 44.0, 980.0, 660.0 ],
		"openrect" : [ 0.0, 0.0, 0.0, 0.0 ],
		"openinpresentation" : 0,
		"default_fontsize" : 10.0,
		"default_fontface" : 0,
		"default_fontname" : "Verdana",
		"gridonopen" : 0,
		"gridsize" : [ 5.0, 5.0 ],
		"gridsnaponopen" : 0,
		"toolbarvisible" : 1,
		"boxanimatetime" : 200,
		"imprint" : 0,
		"enablehscroll" : 1,
		"enablevscroll" : 1,
		"devicewidth" : 0.0,
		"boxes" : [ 			{
				"box" : 				{
					"args" : [  ],
					"id" : "obj-17",
					"maxclass" : "bpatcher",
					"name" : "jmod.libmapper.maxpat",
					"numinlets" : 1,
					"numoutlets" : 1,
					"outlettype" : [ "" ],
					"patching_rect" : [ 355.0, 93.0, 600.0, 70.0 ],
					"presentation_rect" : [ 0.0, 0.0, 600.0, 70.0 ]
				}

			}
, 			{
				"box" : 				{
					"args" : [ "/output~" ],
					"id" : "obj-2",
					"lockeddragscroll" : 1,
					"maxclass" : "bpatcher",
					"name" : "jmod.output~.maxpat",
					"numinlets" : 3,
					"numoutlets" : 1,
					"outlettype" : [ "" ],
					"patching_rect" : [ 18.0, 490.0, 300.0, 140.0 ],
					"presentation_rect" : [ 22.0, 472.0, 300.0, 140.0 ],
					"varname" : "/input~[1]"
				}

			}
, 			{
				"box" : 				{
					"args" : [ "/bcf2000" ],
					"id" : "obj-8",
					"lockeddragscroll" : 1,
					"maxclass" : "bpatcher",
					"name" : "jmod.bcf2000.maxpat",
					"numinlets" : 1,
					"numoutlets" : 1,
					"outlettype" : [ "" ],
					"patching_rect" : [ 604.0, 257.0, 300.0, 70.0 ],
					"presentation_rect" : [ 15.0, 15.0, 300.0, 70.0 ],
					"varname" : "jmod.bcf2000"
				}

			}
, 			{
				"box" : 				{
					"args" : [ "@name", "jmod.libmapper", "@description", "A bridge between Jamoma and the libmapper Mapping Network." ],
					"bgmode" : 1,
					"id" : "obj-31",
					"maxclass" : "bpatcher",
					"name" : "jcom.maxhelpui.maxpat",
					"numinlets" : 1,
					"numoutlets" : 0,
					"patching_rect" : [ 0.0, 0.0, 980.0, 70.0 ],
					"prototypename" : "bphelp",
					"varname" : "maxhelpui"
				}

			}
, 			{
				"box" : 				{
					"args" : [ "/input~" ],
					"id" : "obj-5",
					"lockeddragscroll" : 1,
					"maxclass" : "bpatcher",
					"name" : "jmod.input~.maxpat",
					"numinlets" : 1,
					"numoutlets" : 3,
					"outlettype" : [ "", "signal", "signal" ],
					"patching_rect" : [ 18.0, 253.0, 300.0, 140.0 ],
					"presentation_rect" : [ 0.0, 0.0, 300.0, 140.0 ],
					"varname" : "/input~"
				}

			}
, 			{
				"box" : 				{
					"args" : [ "/filter~" ],
					"id" : "obj-6",
					"lockeddragscroll" : 1,
					"maxclass" : "bpatcher",
					"name" : "jmod.filter~.maxpat",
					"numinlets" : 3,
					"numoutlets" : 3,
					"outlettype" : [ "", "signal", "signal" ],
					"patching_rect" : [ 18.0, 406.0, 300.0, 70.0 ],
					"presentation_rect" : [ 0.0, 0.0, 300.0, 70.0 ],
					"varname" : "/filter~"
				}

			}
, 			{
				"box" : 				{
					"fontname" : "Verdana",
					"fontsize" : 10.0,
					"id" : "obj-22",
					"linecount" : 2,
					"maxclass" : "comment",
					"numinlets" : 1,
					"numoutlets" : 0,
					"patching_rect" : [ 17.0, 159.0, 285.0, 31.0 ],
					"text" : "Choose the source and destinations adresses, fine-tune the settings, and you're done."
				}

			}
, 			{
				"box" : 				{
					"fontname" : "Verdana Bold",
					"fontsize" : 10.0,
					"id" : "obj-27",
					"linecount" : 3,
					"maxclass" : "comment",
					"numinlets" : 1,
					"numoutlets" : 0,
					"patching_rect" : [ 15.0, 93.0, 309.0, 43.0 ],
					"text" : "This module allows one to map data from a module's output (return or parameter) to another module's parameter (or message)"
				}

			}
, 			{
				"box" : 				{
					"args" : [ "/mouse" ],
					"id" : "obj-28",
					"lockeddragscroll" : 1,
					"maxclass" : "bpatcher",
					"name" : "jmod.mouse.maxpat",
					"numinlets" : 1,
					"numoutlets" : 1,
					"outlettype" : [ "" ],
					"patching_rect" : [ 355.0, 254.0, 150.0, 70.0 ],
					"presentation_rect" : [ 0.0, 0.0, 150.0, 70.0 ],
					"varname" : "/mouse/1"
				}

			}
 ],
		"lines" : [ 			{
				"patchline" : 				{
					"destination" : [ "obj-6", 2 ],
					"hidden" : 0,
					"midpoints" : [  ],
					"source" : [ "obj-5", 2 ]
				}

			}
, 			{
				"patchline" : 				{
					"destination" : [ "obj-6", 1 ],
					"hidden" : 0,
					"midpoints" : [  ],
					"source" : [ "obj-5", 1 ]
				}

			}
, 			{
				"patchline" : 				{
					"destination" : [ "obj-2", 2 ],
					"hidden" : 0,
					"midpoints" : [  ],
					"source" : [ "obj-6", 2 ]
				}

			}
, 			{
				"patchline" : 				{
					"destination" : [ "obj-2", 1 ],
					"hidden" : 0,
					"midpoints" : [  ],
					"source" : [ "obj-6", 1 ]
				}

			}
 ]
	}

}
